<svg xmlns="http://www.w3.org/2000/svg" width="16" height="16"><path fill="#0097d0" d="M3.92 7.468h-.007a.53.53 0 0 0-.579.455v.003a.53.53 0 0 0 .581.458h-.002 8.123a.53.53 0 0 0 .579-.455v-.003a.53.53 0 0 0-.581-.458h.002-8.115z"/><path fill="#0097d0" d="M8.462 3.733v-.007a.523.523 0 0 0-.44-.578h-.003a.526.526 0 0 0-.443.582v-.002 8.123a.523.523 0 0 0 .441.578h.003a.526.526 0 0 0 .443-.582v.002-.009z"/><path fill="#0097d0" d="M7.999 0a8 8 0 1 0 8 8 8.01 8.01 0 0 0-8-8zm0 .818a7.44 7.44 0 0 1 7.208 7.169V8a7.47 7.47 0 0 1-7.196 7.215h-.013C4.071 15.077.923 11.927.79 8.012v-.013A7.443 7.443 0 0 1 7.987.817h.012z"/></svg>