<svg xmlns="http://www.w3.org/2000/svg" width="24" height="23.999"><defs><style>.c{fill:#0097d0}</style><clipPath id="a"><path fill="none" d="M0 0h24v23.999H0z"/></clipPath></defs><g clip-path="url(#a)"><path class="c" d="M5.88 11.202h-.011a.794.794 0 0 0-.869.687.793.793 0 0 0 .869.687h12.184a.794.794 0 0 0 .869-.687.793.793 0 0 0-.869-.687H5.88z"/><path class="c" d="M11.999 0a12 12 0 1 0 12 12 12.013 12.013 0 0 0-12-12zm0 1.227A11.157 11.157 0 0 1 22.812 12a11.2 11.2 0 0 1-10.813 10.823A11.2 11.2 0 0 1 1.186 12 11.159 11.159 0 0 1 11.999 1.227z"/></g></svg>